<?xml version="1.0" encoding="UTF-8"?>
<svg width="229px" height="66px" viewBox="0 0 229 66" version="1.1" xmlns="http://www.w3.org/2000/svg" xmlns:xlink="http://www.w3.org/1999/xlink">
    <!-- Generator: Sketch 46.2 (44496) - http://www.bohemiancoding.com/sketch -->
    <title>Impresee Logo</title>
    <desc>Created with Sketch.</desc>
    <defs></defs>
    <g id="Page-1" stroke="none" stroke-width="1" fill="none" fill-rule="evenodd">
        <g id="Desktop-HD-Copy-3" transform="translate(-608.000000, -256.000000)" fill-rule="nonzero" fill="#06C3A3">
            <g id="Impresee-Logo" transform="translate(606.000000, 227.000000)">
                <path d="M34.7410582,44.3162892 C33.672466,45.4525614 33.4104134,46.2682023 32.009888,48.4057442 C32.9154252,49.0160686 34.6537073,50.4251587 35.8591491,52.8523937 C38.2671212,51.5164301 39.3910355,51.3139261 40.6663581,50.2760933 C48.9996301,43.4978356 69.4047908,19.2001726 68.7030722,18.4970338 C67.9664133,17.7517067 42.0785304,36.542387 34.7410582,44.3162892 L34.7410582,44.3162892 Z" id="Shape-Copy" transform="translate(50.365306, 35.663942) scale(-1, 1) rotate(-136.000000) translate(-50.365306, -35.663942) "></path>
                <path d="M21.4047401,29.9970398 C17.7855028,29.3782777 14.2128527,31.5889459 11.8281742,37.1128041 C9.4405841,42.6366621 5.17786217,44.8473305 4.3509407,44.7123278 C8.80001114,46.2676707 22.3685113,50.2446236 25.7402544,35.1046398 C24.3077003,31.4736312 21.4047401,29.9970398 21.4047401,29.9970398 L21.4047401,29.9970398 Z" id="Path" transform="translate(15.045598, 38.129541) scale(-1, 1) rotate(-136.000000) translate(-15.045598, -38.129541) "></path>
                <path d="M202.772563,66.7956202 C203.847105,56.9519102 210.776536,50.0434783 218.357447,50.0434783 C222.809051,50.0434783 225.242593,52.3981035 225.242593,55.6945787 C225.242593,62.640723 217.645191,63.582573 211.353592,66.4669888 L211.353592,67.9386296 C211.353592,71.1762394 214.855519,71.882627 217.051644,71.882627 C224.886465,71.882627 228.803875,64.5832887 230.169034,64.5832887 C230.762581,64.5832887 231,65.2896763 231,66.6435857 C231,69.9400612 226.726461,78.6521739 213.134233,78.6521739 C208.89256,78.6521739 204.763154,76.9078035 203.242065,72.9770122 C200.582786,75.9445149 195.901464,78.6521739 188.323965,78.6521739 C182.982042,78.6521739 177.818182,75.8854896 177.818182,69.4691357 C177.818182,58.2258008 185.296875,50.0434783 193.547179,50.0434783 C197.998783,50.0434783 200.432325,52.3981035 200.432325,55.6945787 C200.432325,62.640723 192.834923,63.582573 186.543324,66.4669888 L186.543324,67.9386296 C186.543324,71.1762394 190.045252,71.882627 192.241376,71.882627 C197.212737,71.882627 200.606881,68.9437869 202.772563,66.7956202 Z M190.289497,56.173913 C187.906443,56.173913 186.595764,60.091987 186,64.3478261 C189.336276,61.8483651 192.136364,60.6324111 192.136364,57.862738 C192.136364,56.849443 191.5406,56.173913 190.289497,56.173913 Z M67.3801159,67.6457106 C68.7045531,62.3052687 70.5528037,56.4680574 73.104082,50.5647208 C73.6447598,49.2525381 74.6660396,48.8946701 75.4470184,48.8946701 C77.3694271,48.8946701 79.171685,51.8172588 79.832513,53.6662436 C81.6948466,51.5786802 84.1579331,50.1472081 87.8225247,50.1472081 C94.4908805,50.1472081 97.1942673,54.2626904 97.1942673,59.213198 C97.1942673,65.356599 92.6886219,72.2157358 87.0415459,74.3629439 L87.7624496,74.3629439 C94.6110307,74.3629439 100.017806,68.4581216 101.519688,66.4898477 C102.003349,65.849588 102.452398,65.3983334 102.838968,65.1176394 C103.267503,61.8725021 104.083931,59.3607835 105.544731,56.5291878 C103.922698,55.038071 102.781268,53.3083756 102.781268,51.8172588 C102.781268,49.4911167 104.102924,48 107.106688,48 C110.470903,48 112.333237,52.1751269 112.753764,54.0837563 C113.414592,54.322335 114.135495,54.3819797 115.036624,54.3819797 C117.920238,54.3819797 120.143023,52.1154822 121.82513,52.1154822 C123.146786,52.1154822 124.468443,54.9784264 125.189346,57.1852791 C123.747539,63.3883249 121.644905,68.8159896 121.644905,70.9631977 C121.644905,71.6192896 121.82513,71.9771576 122.305732,71.9771576 C123.785096,71.9771576 126.462011,69.0998527 128.521715,66.9787862 C129.617559,57.0170301 136.626233,50.0279187 144.293283,50.0279187 C148.798929,50.0279187 151.262015,52.4137056 151.262015,55.7538071 C151.262015,62.7918782 143.57238,63.7461929 137.204401,66.6687817 L137.204401,68.1598985 C137.204401,71.4403555 140.748842,72.1560916 142.971627,72.1560916 C146.585676,72.1560916 149.376178,70.6199115 151.47393,68.9477725 C152.237717,66.3824734 153.985266,64.3426396 155.52736,64.3426396 C159.312102,64.3426396 155.827736,73.7068528 166.881587,73.7068528 C164.899103,67.6230964 157.449769,65.7741116 157.449769,58.9746193 C157.449769,53.0697969 162.556167,49.7296954 167.842791,49.7296954 C173.129416,49.7296954 175.772727,51.9961929 175.772727,55.1573604 C175.772727,59.5114213 173.129416,62.1954314 169.885351,63.2690355 C172.168211,65.6548223 174.451071,68.1002538 174.451071,70.7842637 C174.451071,76.0926398 170.005501,79.134518 162.25579,79.134518 C156.852405,79.134518 153.646995,77.3887408 152.137894,75.0962461 C149.301639,77.3003278 145.070308,79.0152282 139.006659,79.0152282 C134.931595,79.0152282 130.958911,77.422793 129.249149,73.8548766 C127.047369,76.6726194 123.716729,78.8362942 120.022873,78.8362942 C116.23813,78.8362942 114.435872,75.1979698 114.435872,71.2017766 C114.435872,67.0862944 115.577302,62.7322335 117.259409,59.392132 C116.478431,59.75 114.07542,59.928934 113.414592,59.928934 C112.93399,59.928934 112.393312,59.8692893 111.91271,59.8096447 C111.191807,62.7918782 110.290677,66.1916244 110.290677,68.1598985 C110.290677,71.3807106 110.651129,74.6611677 110.651129,76.331218 C110.651129,77.2258881 109.089172,79.6116751 105.064129,79.6116751 C103.081644,79.6116751 102.420816,77.4048221 102.420816,73.7664977 C102.420816,73.3140482 102.422555,72.8745475 102.426239,72.4471484 C100.604805,74.8905137 97.7601734,77.0277008 94.5509556,78.2398479 C92.268095,79.134518 89.0240304,79.4327411 86.0202668,79.4327411 C81.8750725,79.4327411 78.210481,78.2398479 78.210481,74.8401017 C78.210481,73.7068528 78.7511581,72.4543147 78.7511581,72.4543147 C85.4195139,72.4543147 88.4232775,66.6091371 88.4232775,59.928934 C88.4232775,58.1992386 86.9814708,56.5291878 84.998987,56.5291878 C82.7762015,56.5291878 80.0127389,58.4974619 78.2705561,61.7182741 C77.0690504,63.9251269 75.6873194,66.6091371 75.1466416,69.8299494 C73.4645339,79.492386 71.9626521,92.0774109 71.3018241,93.329949 C70.8812972,94.1053299 70.0402433,95 69.1391142,95 C67.4570065,95 66.0151999,93.2703048 65.4144472,92.5545687 C64.6334686,91.6598987 64.2730169,90.7652286 64.2730169,89.4530457 C64.2730169,86.85225 64.5886589,82.1301154 65.5965024,76.1914927 C63.3853134,77.7840294 60.7814182,78.8362942 58.2054141,78.8362942 C54.7811234,78.8362942 53.8799943,74.9593909 53.8799943,71.0228426 C53.8799943,66.9670051 55.2016503,64.0444162 55.2016503,60.5253807 C55.2016503,59.392132 54.7210481,58.5571066 52.9187899,58.5571066 C50.5157789,58.5571066 47.692241,63.9847715 46.6709613,68.0406091 L46.6709613,68.1598985 C46.6709613,71.3807106 47.9325421,73.4086297 47.9325421,75.07868 C47.9325421,76.5697969 46.8511871,77.7626901 42.8261436,79.313452 C42.3455415,79.492386 41.8649393,79.6116751 41.4444123,79.6116751 C39.4619283,79.6116751 38.8011002,77.4048221 38.8011002,73.7664977 C38.8011002,66.9073604 39.7022293,61.0025381 39.7022293,58.4974619 C39.7022293,57.1852791 39.2216272,56.4695431 37.8398958,56.4695431 C35.3167343,56.4695431 31.0513897,64.2829949 31.0513897,68.1598985 C31.0513897,71.3807106 32.3129705,73.4086297 32.3129705,75.07868 C32.3129705,76.5697969 31.2316155,77.7626901 27.2065721,79.313452 C26.7259699,79.492386 26.2453677,79.6116751 25.8248408,79.6116751 C23.8423567,79.6116751 23.1815287,77.4048221 23.1815287,73.7664977 C23.1815287,73.3110298 23.1816514,72.8638438 23.1823179,72.4244652 C20.6828244,75.9058809 16.3063395,78.8362942 12.0075275,78.8362942 C7.32165606,78.8362942 6,73.7664977 6,67.6827411 C6,60.5850253 8.46308628,49.0139594 12.8485813,49.0139594 C15.3717429,49.0139594 16.3930226,53.3680203 16.3930226,54.7398477 C16.272872,60.107868 13.5094094,66.9073604 13.5094094,70.1281726 C13.5094094,71.3210658 14.4706138,71.9771576 15.612044,71.9771576 C17.4921388,71.9771576 21.3064476,67.3299104 23.3298944,65.493807 C23.6528548,59.8931589 24.6777321,55.4871252 27.9274754,50.5647208 C28.708454,49.3718274 29.4894326,48.8946701 30.2704112,48.8946701 C32.19282,48.8946701 33.9950782,51.8172588 34.6559063,53.6662436 C36.3380139,51.6383248 38.6208744,50.0875634 41.4444123,50.0875634 C44.8086277,50.0875634 48.1127679,52.5329949 48.1127679,56.0520305 L48.1127679,56.7081218 C50.0952519,54.2626904 53.0389405,52.1751269 57.0639839,52.1751269 C61.3894037,52.1751269 63.6722641,54.5609137 63.6722641,58.3781726 C63.6722641,63.7461929 61.3293284,69.2335025 61.3293284,71.2017766 C61.3293284,71.6789338 61.449479,71.9771576 61.8099306,71.9771576 C63.1388108,71.9771576 65.4340014,69.6554479 67.3801159,67.6457106 Z M141.198588,56.173913 C138.815534,56.173913 137.504854,60.091987 136.909091,64.3478261 C140.245366,61.8483651 143.045455,60.6324111 143.045455,57.862738 C143.045455,56.849443 142.449691,56.173913 141.198588,56.173913 Z M163.5,54.7434783 C163.5,56.6439131 164.910659,58.4830435 166.815047,60.2608696 C168.08464,59.0347826 169.636364,57.3182609 169.636364,56.0308696 C169.636364,55.05 168.931034,54.1304348 166.88558,54.1304348 C165.757053,54.1304348 163.5,54.7434783 163.5,54.7434783 Z M216.880406,56.173913 C214.497352,56.173913 213.186672,60.091987 212.590909,64.3478261 C215.927185,61.8483651 218.727273,60.6324111 218.727273,57.862738 C218.727273,56.849443 218.131509,56.173913 216.880406,56.173913 Z" id="impresee"></path>
            </g>
        </g>
    </g>
</svg>