<?xml version="1.0" encoding="utf-8"?>
<!-- Generator: Adobe Illustrator 23.0.2, SVG Export Plug-In . SVG Version: 6.00 Build 0)  -->
<svg version="1.1" id="Layer_1" xmlns="http://www.w3.org/2000/svg" xmlns:xlink="http://www.w3.org/1999/xlink" x="0px" y="0px"
	 viewBox="0 0 205 64.63" style="enable-background:new 0 0 205 64.63;" xml:space="preserve">
<style type="text/css">
	.st0{fill:#9CD333;}
</style>
<g>
	<g>
		<g>
			<path d="M25.81,21.62c-0.61-0.57-0.92-1.27-0.92-2.11c0-0.84,0.31-1.55,0.92-2.11c0.61-0.57,1.41-0.85,2.39-0.85
				c0.98,0,1.77,0.27,2.39,0.82c0.61,0.55,0.92,1.23,0.92,2.05c0,0.89-0.31,1.62-0.92,2.2c-0.61,0.58-1.41,0.87-2.39,0.87
				C27.22,22.47,26.42,22.19,25.81,21.62z M25.53,25.03h5.32v18.35h-5.32V25.03z"/>
		</g>
	</g>
	<g>
		<g>
			<path d="M63.92,26.78c1.35,1.35,2.03,3.38,2.03,6.09v10.5h-5.32v-9.68c0-1.45-0.3-2.54-0.9-3.26c-0.6-0.72-1.46-1.07-2.57-1.07
				c-1.25,0-2.24,0.4-2.97,1.21c-0.73,0.81-1.09,2.01-1.09,3.6v9.21h-5.32v-9.68c0-2.89-1.16-4.33-3.48-4.33
				c-1.23,0-2.21,0.4-2.93,1.21c-0.73,0.81-1.09,2.01-1.09,3.6v9.21h-5.32V25.03h5.08v2.11c0.68-0.77,1.52-1.36,2.51-1.77
				c0.99-0.41,2.07-0.61,3.26-0.61c1.3,0,2.47,0.26,3.51,0.77c1.05,0.51,1.89,1.26,2.52,2.23c0.75-0.96,1.7-1.69,2.85-2.22
				c1.15-0.52,2.4-0.78,3.77-0.78C60.74,24.75,62.57,25.43,63.92,26.78z"/>
		</g>
	</g>
	<g>
		<g>
			<path d="M85.36,25.93c1.4,0.78,2.49,1.89,3.29,3.31c0.8,1.42,1.19,3.08,1.19,4.96c0,1.89-0.4,3.54-1.19,4.96
				c-0.8,1.42-1.89,2.52-3.29,3.31c-1.4,0.78-2.95,1.18-4.65,1.18c-2.34,0-4.18-0.74-5.52-2.22v8.56h-5.32V25.03h5.08v2.11
				c1.32-1.59,3.24-2.39,5.76-2.39C82.41,24.75,83.96,25.15,85.36,25.93z M83.15,37.9c0.87-0.92,1.31-2.15,1.31-3.7
				c0-1.55-0.44-2.78-1.31-3.7c-0.88-0.92-1.99-1.38-3.36-1.38c-1.36,0-2.48,0.46-3.36,1.38c-0.88,0.92-1.31,2.15-1.31,3.7
				c0,1.55,0.44,2.78,1.31,3.7c0.87,0.92,1.99,1.38,3.36,1.38C81.15,39.28,82.27,38.82,83.15,37.9z"/>
		</g>
	</g>
	<g>
		<g>
			<path d="M100.39,25.44c1.08-0.45,2.32-0.68,3.73-0.68v4.91c-0.59-0.05-0.99-0.07-1.19-0.07c-1.52,0-2.72,0.43-3.58,1.28
				c-0.86,0.85-1.3,2.13-1.3,3.84v8.66h-5.32V25.03h5.08v2.42C98.45,26.56,99.31,25.89,100.39,25.44z"/>
		</g>
	</g>
	<g>
		<g>
			<path d="M118.32,38.96c0.74-0.28,1.43-0.73,2.06-1.35l2.83,3.07c-1.73,1.98-4.25,2.97-7.57,2.97c-2.07,0-3.9-0.4-5.49-1.21
				c-1.59-0.81-2.82-1.93-3.68-3.36c-0.86-1.43-1.3-3.06-1.3-4.88c0-1.8,0.43-3.42,1.28-4.86c0.85-1.44,2.02-2.57,3.51-3.38
				c1.49-0.81,3.17-1.21,5.03-1.21c1.75,0,3.34,0.37,4.77,1.11c1.43,0.74,2.57,1.81,3.43,3.21c0.85,1.4,1.28,3.05,1.28,4.96
				l-13.57,2.63c0.39,0.91,0.99,1.59,1.82,2.05c0.83,0.46,1.85,0.68,3.05,0.68C116.73,39.38,117.58,39.24,118.32,38.96z
				 M111.72,30.07c-0.84,0.86-1.28,2.06-1.33,3.58l8.93-1.74c-0.25-0.95-0.76-1.72-1.53-2.28c-0.77-0.57-1.7-0.85-2.8-0.85
				C113.65,28.78,112.56,29.21,111.72,30.07z"/>
		</g>
	</g>
	<g>
		<g>
			<path class="st0" d="M129.12,43.08c-1.46-0.37-2.61-0.85-3.48-1.42l1.77-3.82c0.82,0.52,1.81,0.95,2.97,1.28
				c1.16,0.33,2.3,0.49,3.41,0.49c2.25,0,3.38-0.56,3.38-1.67c0-0.52-0.31-0.9-0.92-1.13c-0.61-0.23-1.56-0.42-2.83-0.58
				c-1.5-0.23-2.74-0.49-3.72-0.78c-0.98-0.3-1.82-0.82-2.54-1.57c-0.72-0.75-1.07-1.82-1.07-3.21c0-1.16,0.34-2.19,1.01-3.09
				c0.67-0.9,1.65-1.6,2.93-2.1c1.28-0.5,2.8-0.75,4.55-0.75c1.3,0,2.59,0.14,3.87,0.43c1.28,0.28,2.35,0.68,3.19,1.18l-1.77,3.79
				c-1.61-0.91-3.38-1.36-5.29-1.36c-1.14,0-1.99,0.16-2.56,0.48c-0.57,0.32-0.85,0.73-0.85,1.23c0,0.57,0.31,0.97,0.92,1.19
				c0.61,0.23,1.59,0.44,2.93,0.65c1.5,0.25,2.73,0.52,3.68,0.8c0.95,0.28,1.78,0.8,2.49,1.55c0.7,0.75,1.06,1.8,1.06,3.14
				c0,1.14-0.34,2.15-1.02,3.03c-0.68,0.89-1.68,1.57-2.98,2.06c-1.31,0.49-2.86,0.73-4.65,0.73
				C132.07,43.65,130.58,43.46,129.12,43.08z"/>
		</g>
	</g>
	<g>
		<g>
			<path class="st0" d="M156.79,38.96c0.74-0.28,1.43-0.73,2.06-1.35l2.83,3.07c-1.73,1.98-4.25,2.97-7.57,2.97
				c-2.07,0-3.9-0.4-5.49-1.21c-1.59-0.81-2.82-1.93-3.68-3.36c-0.86-1.43-1.3-3.06-1.3-4.88c0-1.8,0.43-3.42,1.28-4.86
				c0.85-1.44,2.02-2.57,3.51-3.38c1.49-0.81,3.17-1.21,5.03-1.21c1.75,0,3.34,0.37,4.77,1.11c1.43,0.74,2.57,1.81,3.43,3.21
				c0.85,1.4,1.28,3.05,1.28,4.96l-13.57,2.63c0.39,0.91,0.99,1.59,1.82,2.05c0.83,0.46,1.85,0.68,3.05,0.68
				C155.2,39.38,156.05,39.24,156.79,38.96z M150.19,30.07c-0.84,0.86-1.28,2.06-1.33,3.58l8.93-1.74
				c-0.25-0.95-0.76-1.72-1.53-2.28c-0.77-0.57-1.7-0.85-2.8-0.85C152.12,28.78,151.03,29.21,150.19,30.07z"/>
		</g>
	</g>
	<g>
		<g>
			<path class="st0" d="M177.74,38.96c0.74-0.28,1.43-0.73,2.06-1.35l2.83,3.07c-1.73,1.98-4.25,2.97-7.57,2.97
				c-2.07,0-3.9-0.4-5.49-1.21c-1.59-0.81-2.82-1.93-3.68-3.36c-0.86-1.43-1.3-3.06-1.3-4.88c0-1.8,0.43-3.42,1.28-4.86
				c0.85-1.44,2.02-2.57,3.51-3.38c1.49-0.81,3.17-1.21,5.03-1.21c1.75,0,3.34,0.37,4.77,1.11c1.43,0.74,2.57,1.81,3.43,3.21
				c0.85,1.4,1.28,3.05,1.28,4.96l-13.57,2.63c0.39,0.91,0.99,1.59,1.82,2.05c0.83,0.46,1.85,0.68,3.05,0.68
				C176.16,39.38,177,39.24,177.74,38.96z M171.15,30.07c-0.84,0.86-1.28,2.06-1.33,3.58l8.93-1.74c-0.25-0.95-0.76-1.72-1.53-2.28
				c-0.77-0.57-1.7-0.85-2.8-0.85C173.08,28.78,171.99,29.21,171.15,30.07z"/>
		</g>
	</g>
	<g>
		<path class="st0" d="M190.34,3.31h-8.02V7.8h8.02c1.64,0,2.98,1.34,2.98,2.98v6.97h4.49v-6.97
			C197.81,6.66,194.46,3.31,190.34,3.31z"/>
		<path class="st0" d="M7.19,10.78v6.97h4.49v-6.97c0-1.64,1.33-2.98,2.97-2.98h6.39V3.31h-6.39C10.54,3.31,7.19,6.66,7.19,10.78z"
			/>
		<path class="st0" d="M11.68,53.85v-6.97H7.19v6.97c0,4.12,3.35,7.47,7.47,7.47h6.39v-4.49h-6.39
			C13.02,56.83,11.68,55.49,11.68,53.85z"/>
		<path class="st0" d="M193.32,53.85c0,1.64-1.34,2.98-2.98,2.98h-8.02v4.49h8.02c4.12,0,7.47-3.35,7.47-7.47v-6.97h-4.49V53.85z"/>
	</g>
</g>
</svg>
